{"asset":{"generator":"3D Builder","version":"2.0"},"scene":0,"scenes":[{"nodes":[0]}],"nodes":[{"mesh":0,"matrix":[1,0,0,0,0,-1.1920928955078125E-7,-0.99999988079071045,0,0,0.99999988079071045,-1.1920928955078125E-7,0,-43.324043273925781,-1.4452761206484865E-5,-41.7749137878418,1]}],"meshes":[{"primitives":[{"attributes":{"POSITION":0},"mode":4,"indices":1,"material":0}]}],"materials":[{"name":"Metallic","pbrMetallicRoughness":{"baseColorFactor":[0.24620139598846436,0.79910284280776978,0.76052463054656982,1],"metallicFactor":1,"roughnessFactor":0.25},"alphaMode":"OPAQUE"}],"accessors":[{"bufferView":0,"byteOffset":0,"count":96,"componentType":5126,"type":"VEC3","min":[25.606430053710938,-58.051681518554688,9.47280386753846E-6],"max":[61.041656494140625,-25.498161315917969,52.359977722167969]},{"bufferView":1,"byteOffset":0,"count":708,"componentType":5125,"type":"SCALAR"}],"bufferViews":[{"buffer":0,"byteOffset":0,"byteLength":1152,"byteStride":12,"target":34962},{"buffer":0,"byteOffset":1152,"byteLength":2832,"target":34963}],"buffers":[{"byteLength":3984,"uri":"Nouvelle scène.bin"}]}